<?xml version="1.0" standalone="no"?>
<!DOCTYPE svg PUBLIC "-//W3C//DTD SVG 20010904//EN"
 "http://www.w3.org/TR/2001/REC-SVG-20010904/DTD/svg10.dtd">
<svg version="1.0" xmlns="http://www.w3.org/2000/svg"
 width="591.000000pt" height="509.000000pt" viewBox="0 0 591.000000 509.000000"
 preserveAspectRatio="xMidYMid meet">

<g transform="translate(0.000000,509.000000) scale(0.100000,-0.100000)"
fill="#5d5d5d" stroke="none">
<path d="M2968 4995 c-87 -46 -98 -93 -46 -202 46 -96 44 -140 -11 -232 -47
-79 -71 -140 -71 -180 0 -14 13 -54 30 -88 36 -78 44 -120 30 -158 -41 -108
-158 -115 -194 -11 -18 52 -7 95 42 159 75 99 77 125 16 214 -40 58 -40 82 -3
135 26 36 15 35 -42 -1 -46 -29 -89 -84 -89 -115 0 -9 9 -34 20 -56 36 -71 28
-106 -46 -210 -36 -50 -74 -110 -85 -133 -67 -149 63 -410 247 -494 277 -127
612 52 665 355 14 80 1 140 -53 243 -50 97 -56 156 -19 207 46 66 37 119 -36
209 -52 64 -58 61 -55 -21 3 -70 2 -72 -42 -141 -58 -89 -62 -143 -16 -220 31
-53 38 -101 19 -138 -48 -93 -128 -89 -164 8 -22 57 -15 95 37 199 37 73 40
85 36 142 -3 52 -14 83 -61 176 -31 62 -63 133 -72 157 -19 55 -19 141 -1 186
8 19 14 35 13 35 -1 -1 -23 -12 -49 -25z"/>
<path d="M2855 3314 c-459 -34 -888 -250 -1173 -589 -122 -145 -246 -348 -290
-473 -9 -27 -15 -30 -69 -36 -194 -24 -432 -121 -613 -252 -249 -179 -453
-478 -529 -776 -36 -141 -43 -223 -39 -508 l3 -276 32 -65 c39 -80 111 -150
191 -187 l57 -27 1075 -3 c810 -2 1086 0 1120 9 134 36 239 138 280 270 6 21
11 150 13 320 1 242 -1 297 -17 374 -91 447 -358 796 -765 1000 -30 15 -106
44 -168 64 l-113 37 42 70 c151 253 401 451 690 548 232 78 544 78 776 0 289
-97 539 -296 691 -549 l42 -70 -43 -11 c-417 -108 -787 -446 -941 -859 -72
-192 -90 -334 -85 -665 3 -244 3 -245 31 -304 36 -78 85 -136 145 -175 101
-64 42 -62 1229 -59 l1078 3 65 31 c79 37 155 111 187 181 38 83 46 163 40
442 -5 270 -16 349 -67 501 -34 101 -105 245 -167 338 -72 108 -228 271 -331
345 -180 130 -423 230 -615 253 -51 6 -60 10 -69 33 -137 338 -398 645 -703
826 -191 113 -415 194 -620 224 -81 11 -297 20 -370 15z m-1034 -1484 c285
-85 537 -307 654 -576 l34 -79 -346 -3 c-488 -3 -457 -28 -449 363 5 261 10
315 29 315 5 0 41 -9 78 -20z m2394 -7 c3 -16 9 -143 12 -283 6 -282 1 -311
-53 -347 -25 -16 -61 -18 -386 -23 -411 -6 -371 -20 -313 106 46 100 106 186
194 277 121 125 264 215 421 265 36 12 72 23 80 26 30 9 38 5 45 -21z m-2943
-312 c-4 -281 -2 -339 12 -403 43 -192 201 -340 392 -368 38 -5 252 -10 477
-10 l407 0 0 -94 c0 -89 -1 -95 -28 -124 -20 -21 -41 -32 -73 -37 -24 -3 -462
-5 -972 -3 l-929 3 -30 34 -30 33 4 237 c5 259 13 308 79 467 89 214 303 437
504 524 51 22 175 69 186 70 3 0 3 -148 1 -329z m3459 310 c282 -98 520 -317
628 -576 66 -157 74 -207 79 -465 3 -228 3 -236 -18 -262 -11 -15 -38 -32 -58
-38 -24 -6 -358 -10 -960 -10 -993 0 -969 -1 -1006 51 -12 18 -16 47 -16 116
l0 93 408 0 c224 0 438 5 476 10 191 28 349 176 392 368 14 64 16 122 12 403
-2 181 -1 329 2 329 4 0 31 -8 61 -19z m-1304 -693 c-3 -8 -6 -5 -6 6 -1 11 2
17 5 13 3 -3 4 -12 1 -19z m-13 -57 c-4 -17 -9 -30 -11 -27 -3 2 -2 19 2 36 9
41 17 33 9 -9z m-877 -13 c-3 -8 -6 -5 -6 6 -1 11 2 17 5 13 3 -3 4 -12 1 -19z
m860 -60 c-3 -7 -5 -2 -5 12 0 14 2 19 5 13 2 -7 2 -19 0 -25z m-10 -75 c-3
-10 -5 -2 -5 17 0 19 2 27 5 18 2 -10 2 -26 0 -35z m-830 -10 c-3 -10 -5 -4
-5 12 0 17 2 24 5 18 2 -7 2 -21 0 -30z"/>
</g>
</svg>
