<svg id="Layer_1" data-name="Layer 1" xmlns="http://www.w3.org/2000/svg" xmlns:xlink="http://www.w3.org/1999/xlink" viewBox="0 0 200 200"><defs><style>.cls-1{fill:none;}.cls-2{fill:#feb415;}.cls-3{clip-path:url(#clip-path);}.cls-4{fill:#fff;}</style><clipPath id="clip-path"><rect class="cls-1" x="51.75" y="37.86" width="96.51" height="124.29"/></clipPath></defs><title>Medeelel</title><path class="cls-2" d="M.27,100A99.73,99.73,0,1,1,100,199.73,99.73,99.73,0,0,1,.27,100Z"/><g class="cls-3"><path class="cls-4" d="M97.64,162.14c-31.94,0-45.89-20.46-45.89-46.35v-28c0-35.95,22.93-50,49.82-50,32.49,0,46.68,18.49,46.68,37,0,27-26.37,33.62-38,37.14-3.35,1-15.73,4.86-18.51,5.71-10.89,3.3-14,7-14,11.18,0,7.15,6,13.34,19.93,13.34,12.14,0,21-4.33,22.53-17.6h25.41C143,145.6,130.88,162.14,97.64,162.14Zm2.85-104.28c-14.11,0-23.37,9.88-23.37,26.72v17.69s19.1-5.84,27.08-8.37c6.68-2.13,18.64-6.55,18.64-17.57C122.86,66.71,115.41,57.86,100.49,57.86Z"/></g></svg>