<svg id="Layer_1" data-name="Layer 1" xmlns="http://www.w3.org/2000/svg" viewBox="0 0 200 200"><defs><style>.cls-1{fill:#feb415;}.cls-2{fill:#fff;}</style></defs><title>Medeelel</title><path class="cls-1" d="M.27,100A99.73,99.73,0,1,1,100,199.73,99.73,99.73,0,0,1,.27,100Z"/><path class="cls-2" d="M100,140.54l24.31-25a35.64,35.64,0,0,0,9.41-18.08,36.3,36.3,0,0,0-2-20.41A35.15,35.15,0,0,0,119.1,61.23a33.63,33.63,0,0,0-38.2,0A35.15,35.15,0,0,0,68.24,77.08a36.3,36.3,0,0,0-2,20.41,35.64,35.64,0,0,0,9.41,18.08Zm0,14.27L68.75,122.7a45.85,45.85,0,0,1-12.1-23.25,46.56,46.56,0,0,1,2.52-26.23A45.16,45.16,0,0,1,75.44,52.84a43.25,43.25,0,0,1,49.12,0,45.16,45.16,0,0,1,16.27,20.38,46.56,46.56,0,0,1,2.52,26.23,45.85,45.85,0,0,1-12.1,23.25Zm0-54.12a9.7,9.7,0,0,0,6.94-3,10.28,10.28,0,0,0,0-14.27,9.62,9.62,0,0,0-13.88,0,10.28,10.28,0,0,0,0,14.27A9.7,9.7,0,0,0,100,100.69Zm0,10.09a19.39,19.39,0,0,1-13.89-5.91,20.58,20.58,0,0,1,0-28.54,19.25,19.25,0,0,1,27.78,0,20.58,20.58,0,0,1,0,28.54A19.39,19.39,0,0,1,100,110.78Z"/></svg>