<svg id="Layer_1" data-name="Layer 1" xmlns="http://www.w3.org/2000/svg" viewBox="0 0 200 200"><defs><style>.cls-1{fill:#feb415;}.cls-2{fill:#fff;}</style></defs><title>Medeelel</title><path class="cls-1" d="M.27,100A99.73,99.73,0,1,1,100,199.73,99.73,99.73,0,0,1,.27,100Z"/><path class="cls-2" d="M145.94,151.64a4.79,4.79,0,0,0,3.53-6.79,46,46,0,0,0-16.83-17.76,63.69,63.69,0,0,0-65.28,0,46,46,0,0,0-16.83,17.76,4.79,4.79,0,0,0,3.53,6.79A216,216,0,0,0,145.94,151.64Z"/><ellipse class="cls-2" cx="99.18" cy="74.53" rx="29.79" ry="31.11"/></svg>