<svg id="Layer_1" data-name="Layer 1" xmlns="http://www.w3.org/2000/svg" viewBox="0 0 200 200"><defs><style>.cls-1{fill:#feb415;}.cls-2{fill:#fff;}</style></defs><title>Medeelel</title><path class="cls-1" d="M.27,100A99.73,99.73,0,1,1,100,199.73,99.73,99.73,0,0,1,.27,100Z"/><path class="cls-2" d="M155,128.22V150.8a6.51,6.51,0,0,1-1.64,4.35,6,6,0,0,1-4,2c-2.67.19-4.86.29-6.54.29-54,0-97.82-45.73-97.82-102.15q0-2.66.28-6.84a6.51,6.51,0,0,1,1.93-4.22,6,6,0,0,1,4.17-1.71H73a3,3,0,0,1,2,.82,3.22,3.22,0,0,1,1,2c.14,1.47.27,2.64.39,3.52A91.89,91.89,0,0,0,83.8,74.48a3,3,0,0,1-.9,3.62L69.71,88a81.55,81.55,0,0,0,41.84,43.69L121,117.89a2.89,2.89,0,0,1,1.59-1.14,2.72,2.72,0,0,1,1.92.19,82.4,82.4,0,0,0,24.45,7.69c.85.13,2,.27,3.37.41a3,3,0,0,1,2,1A3.26,3.26,0,0,1,155,128.22Z"/></svg>