<svg id="Layer_1" data-name="Layer 1" xmlns="http://www.w3.org/2000/svg" viewBox="0 0 200 200"><defs><style>.cls-1{fill:#feb415;}.cls-2{fill:#fff;}</style></defs><title>Medeelel</title><path class="cls-1" d="M.27,100A99.73,99.73,0,1,1,100,199.73,99.73,99.73,0,0,1,.27,100Z"/><path class="cls-2" d="M83.81,46V56.82h32.38V46H127V56.82h21.59a5.39,5.39,0,0,1,5.39,5.4v86.36a5.39,5.39,0,0,1-5.39,5.39H51.42A5.39,5.39,0,0,1,46,148.58V62.22a5.39,5.39,0,0,1,5.39-5.4H73V46ZM143.18,94.6H56.82v48.58h86.36Zm-26.79,6.13,7.63,7.64L97.3,135.08,78.22,116l7.64-7.63,11.45,11.45ZM73,67.62H56.82V83.81h86.36V67.62H127V73h-10.8V67.62H83.81V73H73Z"/></svg>