<svg id="Layer_1" data-name="Layer 1" xmlns="http://www.w3.org/2000/svg" viewBox="0 0 200 200"><defs><style>.cls-1{fill:#feb415;}.cls-2{fill:#fff;fill-rule:evenodd;}</style></defs><title>Medeelel</title><path class="cls-1" d="M.27,100A99.73,99.73,0,1,1,100,199.73,99.73,99.73,0,0,1,.27,100Z"/><path class="cls-2" d="M116.61,68.89a17.63,17.63,0,0,0-4.87-12.22,16.15,16.15,0,0,0-23.48,0,17.63,17.63,0,0,0-4.87,12.22v3.46h33.22Zm6.64,0v3.46H146.5v69.13a14.14,14.14,0,0,1-3.89,9.78,13,13,0,0,1-9.4,4.05H66.79a13,13,0,0,1-9.4-4.05,14.14,14.14,0,0,1-3.89-9.78V72.35H76.75V68.89a24.71,24.71,0,0,1,6.81-17.11,22.61,22.61,0,0,1,32.88,0A24.71,24.71,0,0,1,123.25,68.89Zm-4.29,37a3.57,3.57,0,0,0,0-4.89,3.24,3.24,0,0,0-4.7,0l-17.58,18.3-7.61-7.93a3.25,3.25,0,0,0-4.71,0,3.47,3.47,0,0,0-.72,1.12,3.64,3.64,0,0,0,0,2.65,3.47,3.47,0,0,0,.72,1.12l10,10.37a3.21,3.21,0,0,0,4.7,0Z"/></svg>