<svg id="Layer_1" data-name="Layer 1" xmlns="http://www.w3.org/2000/svg" viewBox="0 0 200 200"><defs><style>.cls-1{fill:#feb415;}.cls-2{fill:#fff;}</style></defs><title>Medeelel</title><path class="cls-1" d="M.27,100A99.73,99.73,0,1,1,100,199.73,99.73,99.73,0,0,1,.27,100Z"/><path class="cls-2" d="M52.51,50.4h95A5.14,5.14,0,0,1,151.22,52a5.62,5.62,0,0,1,1.55,3.89v88.18a5.62,5.62,0,0,1-1.55,3.89,5.14,5.14,0,0,1-3.73,1.62h-95A5.14,5.14,0,0,1,48.78,148a5.62,5.62,0,0,1-1.55-3.89V55.91A5.62,5.62,0,0,1,48.78,52,5.14,5.14,0,0,1,52.51,50.4Zm89.71,44.09H57.78v44.09h84.44Zm0-11v-22H57.78v22Zm-31.67,33.06h21.11v11H110.55Z"/></svg>