<svg width="200" height="200" xmlns="http://www.w3.org/2000/svg" data-name="Layer 1">

 <title>Mini kart</title>
 <g>
  <title>Layer 1</title>
  <path stroke="null" id="svg_1" fill="#5d5d5d" d="m171.86825,137.49235l25.01175,0l0,16.68294l-25.01175,0l0,25.01175l-16.70826,0l0,-25.01175l-25.01175,0l0,-16.68294l25.01175,0l0,-24.98644l16.70826,0l0,24.98644zm-16.70826,-83.33875l0,-16.65762l-133.36226,0l0,16.65762l133.36226,0zm0,33.34056l-133.36226,0l0,49.99819l91.69288,0l0,16.68294l-91.69288,0a16.68294,16.68294 0 0 1 -16.65762,-16.68294l0,-99.99638a16.60699,16.60699 0 0 1 16.65762,-16.68294l133.36226,0a16.68294,16.68294 0 0 1 16.70826,16.68294l0,58.22574l-16.70826,0l0,-8.22755z" class="cls-1"/>
 </g>
</svg>