<svg width="200" height="200" xmlns="http://www.w3.org/2000/svg" data-name="Layer 1">

 <title>pay</title>
 <g>
  <title>Layer 1</title>
  <g stroke="null" id="svg_3">
   <path stroke="null" stroke-width="2" id="svg_1" fill="#64676b" d="m8.61,177.29313l185.44001,0l0,13.13169l-185.44001,0l0,-13.13169z" class="cls-1"/>
   <path stroke="null" stroke-width="2" id="svg_2" fill="#64676b" d="m174.16387,65.50288a6.6369,6.59025 0 0 0 6.6369,-6.56585l0,-19.74636a6.53858,6.49262 0 0 0 -1.20448,-3.75889a6.61232,6.56585 0 0 0 -3.17097,-2.44084l-72.83387,-26.26339a6.514,6.46821 0 0 0 -4.52293,0l-72.83387,26.28779a6.61232,6.56585 0 0 0 -3.17097,2.44084a6.53858,6.49262 0 0 0 -1.20448,3.75889l0,19.74636a6.6369,6.59025 0 0 0 6.6369,6.56585l6.61232,0l0,85.42923l-13.24923,0l0,13.1561l158.94155,0l0,-13.1561l-13.24923,0l0,-85.42923l6.61232,-0.02441zm-139.05542,-21.69902l66.22155,-23.94459l66.22155,23.94459l0,8.54292l-132.4431,0l0,-8.54292zm79.47078,107.17707l-26.49845,0l0,-85.42923l26.49845,0l0,85.42923zm-66.22155,-85.42923l26.47387,0l0,85.42923l-26.47387,0l0,-85.42923zm105.94465,85.42923l-26.47387,0l0,-85.42923l26.47387,0l0,85.42923z" class="cls-1"/>
  </g>
 </g>
</svg>