<svg width="200" height="200" xmlns="http://www.w3.org/2000/svg" data-name="Layer 1">

 <title>pay</title>
 <g>
  <title>Layer 1</title>
  <g stroke="null" id="svg_4">
   <path stroke="null" id="svg_1" fill="#64676b" d="m133.20281,137.96a23.7372,23.7372 0 1 0 -23.7128,-23.7372a23.7372,23.7372 0 0 0 23.7128,23.7372z" class="cls-1"/>
   <path stroke="null" id="svg_2" fill="#64676b" d="m100,114.2228a23.59082,23.59082 0 0 1 9.49,-18.85802a23.7372,23.7372 0 1 0 0,37.74044a23.95676,23.95676 0 0 1 -6.97722,-8.319a23.61522,23.61522 0 0 1 -2.43959,-10.56342l-0.07319,0z" class="cls-1"/>
   <path stroke="null" id="svg_3" fill="#64676b" d="m175.92,24.08l-151.84,0a19.0044,19.0044 0 0 0 -18.98,18.98l0,113.88a19.0044,19.0044 0 0 0 18.98,18.98l151.84,0a19.0044,19.0044 0 0 0 18.98,-18.98l0,-113.88a19.0044,19.0044 0 0 0 -18.98,-18.98zm-151.84,132.86l0,-113.88l151.84,0l0,113.88l-151.84,0z" class="cls-1"/>
  </g>
 </g>
</svg>