<svg width="200" height="200" xmlns="http://www.w3.org/2000/svg" data-name="Layer 1">

 <title>pay</title>
 <g>
  <title>Layer 1</title>
  <g stroke="null" id="svg_15">
   <path stroke="null" id="svg_1" fill="#64676b" d="m154.35757,180.55814l0,-13.5224l13.49745,0l0,13.5224l-13.49745,0z" class="cls-1"/>
   <path stroke="null" id="svg_2" fill="#64676b" d="m113.96503,153.5383l0,-13.5224l13.4725,0l0,13.5224l-13.4725,0z" class="cls-1"/>
   <path stroke="null" id="svg_3" fill="#64676b" d="m113.96503,194.05559l26.94499,0l0,-13.49745l-13.4725,0l0,-13.5224l-13.4725,0l0,27.01984z" class="cls-1"/>
   <path stroke="null" id="svg_4" fill="#64676b" d="m167.85501,167.03575l0,-27.01984l13.4725,0l0,27.01984l-13.4725,0z" class="cls-1"/>
   <path stroke="null" id="svg_5" fill="#64676b" d="m181.30256,167.03575l13.4725,0l0,27.01984l-26.92005,0l0,-13.49745l13.4725,0l-0.02495,-13.5224z" class="cls-1"/>
   <path stroke="null" id="svg_6" fill="#64676b" d="m167.85501,126.51846l0,-13.5224l26.94499,0l0,27.01984l-13.4725,0l0,-13.49745l-13.4725,0z" class="cls-1"/>
   <path stroke="null" id="svg_7" fill="#64676b" d="m154.35757,126.51846l-13.4725,0l0,27.01984l-13.44755,0l0,13.49745l26.92005,0l0,-40.51729z" class="cls-1"/>
   <path stroke="null" id="svg_8" fill="#64676b" d="m113.96503,126.51846l0,-13.5224l26.94499,0l0,13.5224l-26.94499,0z" class="cls-1"/>
   <path stroke="null" id="svg_9" fill="#64676b" d="m33.13004,140.01591l26.94499,0l0,27.01984l-26.94499,0l0,-27.01984z" class="cls-1"/>
   <path stroke="null" id="svg_10" fill="#64676b" d="m87.02003,194.05559l-80.81003,0l0,-81.05952l80.81003,0l0,81.05952zm-67.36249,-13.49745l53.88999,0l0,-54.03968l-53.86504,0l-0.02495,54.03968z" class="cls-1"/>
   <path stroke="null" id="svg_11" fill="#64676b" d="m140.91002,31.96149l26.94499,0l0,27.01984l-26.94499,0l0,-27.01984z" class="cls-1"/>
   <path stroke="null" id="svg_12" fill="#64676b" d="m194.77506,86.00117l-80.81003,0l0,-81.05952l80.81003,0l0,81.05952zm-67.36249,-13.5224l53.86504,0l0,-54.03968l-53.84009,0l-0.02495,54.03968z" class="cls-1"/>
   <path stroke="null" id="svg_13" fill="#64676b" d="m33.13004,31.96149l26.94499,0l0,27.01984l-26.94499,0l0,-27.01984z" class="cls-1"/>
   <path stroke="null" id="svg_14" fill="#64676b" d="m87.02003,86.00117l-80.81003,0l0,-81.05952l80.81003,0l0,81.05952zm-67.36249,-13.5224l53.88999,0l0,-54.03968l-53.86504,0l-0.02495,54.03968z" class="cls-1"/>
  </g>
 </g>
</svg>