<svg xmlns="http://www.w3.org/2000/svg" height="56" viewBox="0 0 56 56" width="56"><circle cx="28" cy="28" fill="#fff" r="28"/><g transform="translate(-846 -601)"><path d="m874 657a28 28 0 1 1 28-28 28.032 28.032 0 0 1 -28 28zm0-54a26 26 0 1 0 26 26 26.029 26.029 0 0 0 -26-26z" fill="#4f3f68"/><path d="m881.952 617.16v-2.925h-12.731v4.926" fill="#fed453"/><path d="m869.221 619.911a.75.75 0 0 1 -.75-.75v-4.926a.75.75 0 0 1 .75-.75h12.731a.75.75 0 0 1 .75.75v2.925a.75.75 0 0 1 -1.5 0v-2.175h-11.231v4.176a.75.75 0 0 1 -.75.75z" fill="#4f3f68"/><path d="m876.917 622.086h8v-4.926h-10.7v2" fill="#f56c73"/><path d="m884.917 622.836h-8a.75.75 0 0 1 0-1.5h7.25v-3.426h-9.2v1.25a.75.75 0 0 1 -1.5 0v-2a.75.75 0 0 1 .75-.75h10.7a.75.75 0 0 1 .75.75v4.926a.75.75 0 0 1 -.75.75z" fill="#4f3f68"/><path d="m0 0h9.744v2.925h-9.744z" fill="#fed453" transform="translate(867.174 619.161)"/><path d="m876.918 622.836h-9.744a.75.75 0 0 1 -.75-.75v-2.925a.75.75 0 0 1 .75-.75h9.744a.75.75 0 0 1 .75.75v2.925a.75.75 0 0 1 -.75.75zm-8.994-1.5h8.244v-1.425h-8.244z" fill="#4f3f68"/><path d="m885.548 635.756h-18.536l-3.781-12.829h26.1v.009z" fill="#fed453"/><g fill="#4f3f68"><path d="m864.234 623.677 3.339 11.329h17.414l3.34-11.329zm-2.006-1.5h27.123a.741.741 0 0 1 .726.753.753.753 0 0 1 -.032.222l-3.779 12.819a.73.73 0 0 1 -.694.535h-19.121z"/><path d="m884.273 642.6h-15.907a.751.751 0 0 1 -.72-.539l-7.384-25.23h-4.039a.75.75 0 0 1 0-1.5h4.6a.751.751 0 0 1 .72.539l7.385 25.23h15.345a.75.75 0 0 1 0 1.5z"/><path d="m869.612 648.485a3.7 3.7 0 1 1 3.7-3.7 3.7 3.7 0 0 1 -3.7 3.7zm0-5.892a2.2 2.2 0 1 0 2.2 2.2 2.2 2.2 0 0 0 -2.2-2.2z"/><path d="m884.5 648.49a3.7 3.7 0 1 1 3.7-3.7 3.7 3.7 0 0 1 -3.7 3.7zm0-5.892a2.2 2.2 0 1 0 2.2 2.2 2.2 2.2 0 0 0 -2.2-2.198z"/><path d="m884.254 627.877h-15.531a.75.75 0 0 1 0-1.5h15.531a.75.75 0 0 1 0 1.5z"/><path d="m881.864 632.3h-10.752a.75.75 0 0 1 0-1.5h10.752a.75.75 0 0 1 0 1.5z"/></g></g></svg>