<svg xmlns="http://www.w3.org/2000/svg" width="56" height="56" viewBox="0 0 56 56">    <defs>        <style>            .cls-1{fill:none}.cls-2{fill:gray}        </style>    </defs>    <g id="Group_4223" data-name="Group 4223" transform="translate(-1018 -530)">        <g id="Ellipse_506-2" data-name="Ellipse 506-2">            <g id="Group_4338" data-name="Group 4338">                <circle id="Ellipse_537" cx="28" cy="28" r="28" class="cls-1" data-name="Ellipse 537" transform="translate(1018 530)"/>            </g>            <g id="Group_4339" data-name="Group 4339">                <path id="Path_4360" d="M1046 586a28 28 0 1 1 28-28 28.032 28.032 0 0 1-28 28zm0-54a26 26 0 1 0 26 26 26.029 26.029 0 0 0-26-26z" class="cls-2" data-name="Path 4360"/>            </g>        </g>        <g id="Group_4184-2" data-name="Group 4184-2">            <g id="Rectangle_2289-2" data-name="Rectangle 2289-2">                <path id="Path_4361" d="M1047.892 574.827h-12.285a2.753 2.753 0 0 1-2.75-2.75v-27.47a2.754 2.754 0 0 1 2.75-2.75h12.285a2.754 2.754 0 0 1 2.75 2.75v27.47a2.753 2.753 0 0 1-2.75 2.75zm-12.285-31.47a1.252 1.252 0 0 0-1.25 1.25v27.47a1.251 1.251 0 0 0 1.25 1.25h12.285a1.251 1.251 0 0 0 1.25-1.25v-27.47a1.252 1.252 0 0 0-1.25-1.25z" class="cls-2" data-name="Path 4361"/>            </g>            <g id="Line_176-2" data-name="Line 176-2">                <path id="Path_4362" d="M1049.7 548.763h-15.6a.75.75 0 0 1 0-1.5h15.6a.75.75 0 0 1 0 1.5z" class="cls-2" data-name="Path 4362"/>            </g>            <g id="Line_177-2" data-name="Line 177-2">                <path id="Path_4363" d="M1049.7 569.322h-15.6a.75.75 0 0 1 0-1.5h15.6a.75.75 0 0 1 0 1.5z" class="cls-2" data-name="Path 4363"/>            </g>            <g id="Line_178-2" data-name="Line 178-2">                <path id="Path_4364" d="M1043.319 545.927h-3.545a.75.75 0 0 1 0-1.5h3.545a.75.75 0 0 1 0 1.5z" class="cls-2" data-name="Path 4364"/>            </g>            <g id="Ellipse_507-2" data-name="Ellipse 507-2">                <path id="Path_4365" d="M1041.749 572.865a1.488 1.488 0 1 1 1.488-1.488 1.49 1.49 0 0 1-1.488 1.488zm0-2.226v.75a.012.012 0 0 0 .012-.012z" class="cls-2" data-name="Path 4365"/>            </g>            <g id="Group_4185-2" data-name="Group 4185-2">                <g id="Rectangle_2290-2" data-name="Rectangle 2290-2">                    <path id="Path_4366" d="M1063.3 566.84h-13.413a.75.75 0 0 1-.75-.75v-15.419a.75.75 0 0 1 .75-.75h13.413a2.752 2.752 0 0 1 2.75 2.75v11.419a2.753 2.753 0 0 1-2.75 2.75zm-12.663-1.5h12.663a1.252 1.252 0 0 0 1.25-1.25v-11.419a1.251 1.251 0 0 0-1.25-1.25h-12.663z" class="cls-2" data-name="Path 4366"/>                </g>                <g id="Line_179-2" data-name="Line 179-2">                    <path id="Path_4367" d="M1065.3 555.852h-14.888a.75.75 0 0 1 0-1.5h14.888a.75.75 0 0 1 0 1.5z" class="cls-2" data-name="Path 4367"/>                </g>                <g id="Line_180-2" data-name="Line 180-2">                    <path id="Path_4368" d="M1051.826 559.4h-1.418a.75.75 0 0 1 0-1.5h1.418a.75.75 0 0 1 0 1.5z" class="cls-2" data-name="Path 4368"/>                </g>                <g id="Line_181-2" data-name="Line 181-2">                    <path id="Path_4369" d="M1053.953 563.65h-3.545a.75.75 0 0 1 0-1.5h3.545a.75.75 0 0 1 0 1.5z" class="cls-2" data-name="Path 4369"/>                </g>                <g id="Line_182-2" data-name="Line 182-2">                    <path id="Path_4370" d="M1056.788 559.4h-2.836a.75.75 0 0 1 0-1.5h2.836a.75.75 0 0 1 0 1.5z" class="cls-2" data-name="Path 4370"/>                </g>                <g id="Line_183-2" data-name="Line 183-2">                    <path id="Path_4371" d="M1061.751 559.4h-2.836a.75.75 0 0 1 0-1.5h2.836a.75.75 0 0 1 0 1.5z" class="cls-2" data-name="Path 4371"/>                </g>            </g>        </g>    </g></svg>