<svg xmlns="http://www.w3.org/2000/svg" width="56" height="56" viewBox="0 0 56 56">    <defs>        <style>            .cls-1{fill:none}.cls-2{fill:gray}        </style>    </defs>    <g id="Group_4222" data-name="Group 4222" transform="translate(-932 -530)">        <g id="Ellipse_503-2" data-name="Ellipse 503-2">            <g id="Group_4334" data-name="Group 4334">                <circle id="Ellipse_535" cx="28" cy="28" r="28" class="cls-1" data-name="Ellipse 535" transform="translate(932 530)"/>            </g>            <g id="Group_4335" data-name="Group 4335">                <path id="Path_4337" d="M960 586a28 28 0 1 1 28-28 28.032 28.032 0 0 1-28 28zm0-54a26 26 0 1 0 26 26 26.029 26.029 0 0 0-26-26z" class="cls-2" data-name="Path 4337"/>            </g>        </g>        <g id="Group_4182-2" data-name="Group 4182-2">            <g id="Group_4183-2" data-name="Group 4183-2">                <g id="Ellipse_504-2" data-name="Ellipse 504-2">                    <path id="Path_4338" d="M971.629 574.827a3.729 3.729 0 1 1 3.729-3.729 3.733 3.733 0 0 1-3.729 3.729zm0-5.958a2.229 2.229 0 1 0 2.229 2.229 2.232 2.232 0 0 0-2.229-2.229z" class="cls-2" data-name="Path 4338"/>                </g>                <g id="Ellipse_505-2" data-name="Ellipse 505-2">                    <path id="Path_4339" d="M952.23 574.827a3.729 3.729 0 1 1 3.729-3.729 3.733 3.733 0 0 1-3.729 3.729zm0-5.958a2.229 2.229 0 1 0 2.229 2.229 2.232 2.232 0 0 0-2.229-2.229z" class="cls-2" data-name="Path 4339"/>                </g>                <g id="Path_4176-2" data-name="Path 4176-2">                    <path id="Path_4340" d="M976.816 571.916h-2.207a.75.75 0 0 1-.75-.75 2.229 2.229 0 0 0-4.458 0 .75.75 0 0 1-.75.75H966.2a.75.75 0 0 1-.75-.75V553a.747.747 0 0 1 .223-.533.667.667 0 0 1 .535-.217l4.862.052a1.522 1.522 0 0 1 1.169.56L978 560.03a1.529 1.529 0 0 1 .336.952v9.418a1.522 1.522 0 0 1-1.52 1.516zm-1.533-1.5h1.533l.02-9.434-5.764-7.173h-.017l-4.106-.044v16.655h1.029a3.729 3.729 0 0 1 7.3 0z" class="cls-2" data-name="Path 4340"/>                </g>                <g id="Path_4177-2" data-name="Path 4177-2">                    <path id="Path_4341" d="M966.2 571.916h-10.993a.75.75 0 0 1-.75-.742c-.016-1.56-.66-2.2-2.225-2.2s-2.21.635-2.225 2.2a.75.75 0 0 1-.75.742h-4.3a1.521 1.521 0 0 1-1.52-1.52v-22.75a1.521 1.521 0 0 1 1.52-1.52h20.474a1.521 1.521 0 0 1 1.52 1.52v23.52a.75.75 0 0 1-.751.75zm-10.3-1.5h9.549v-22.77l-20.494-.02-.02.02V570.4l3.625.017c.274-1.9 1.554-2.934 3.67-2.934s3.4 1.032 3.67 2.933z" class="cls-2" data-name="Path 4341"/>                </g>            </g>            <g id="Line_171-2" data-name="Line 171-2">                <path id="Path_4342" d="M959.117 550.705h-11.543a.75.75 0 0 1 0-1.5h11.543a.75.75 0 0 1 0 1.5z" class="cls-2" data-name="Path 4342"/>            </g>            <g id="Line_172-2" data-name="Line 172-2">                <path id="Path_4343" d="M955.269 543.779h-13.082a.75.75 0 0 1 0-1.5h13.082a.75.75 0 0 1 0 1.5z" class="cls-2" data-name="Path 4343"/>            </g>            <g id="Line_173-2" data-name="Line 173-2">                <path id="Path_4344" d="M952.96 553.783h-10.773a.75.75 0 0 1 0-1.5h10.773a.75.75 0 0 1 0 1.5z" class="cls-2" data-name="Path 4344"/>            </g>            <g id="Line_174-2" data-name="Line 174-2">                <path id="Path_4345" d="M949.883 556.861h-2.309a.75.75 0 0 1 0-1.5h2.309a.75.75 0 0 1 0 1.5z" class="cls-2" data-name="Path 4345"/>            </g>            <g id="Line_175-2" data-name="Line 175-2">                <path id="Path_4346" d="M949.113 559.939h-7.695a.75.75 0 0 1 0-1.5h7.695a.75.75 0 0 1 0 1.5z" class="cls-2" data-name="Path 4346"/>            </g>        </g>    </g></svg>