<svg xmlns="http://www.w3.org/2000/svg" width="56" height="56" viewBox="0 0 56 56">    <defs>        <style>            .cls-1,.cls-3{fill:none}.cls-2{fill:gray}.cls-3{stroke:gray;stroke-linecap:round;stroke-linejoin:round;stroke-width:1.5px}        </style>    </defs>    <g id="Group_4224" data-name="Group 4224" transform="translate(-1104 -530)">        <g id="Ellipse_508-2" data-name="Ellipse 508-2">            <g id="Group_4342" data-name="Group 4342">                <circle id="Ellipse_539" cx="28" cy="28" r="28" class="cls-1" data-name="Ellipse 539" transform="translate(1104 530)"/>            </g>            <g id="Group_4343" data-name="Group 4343">                <path id="Path_4383" d="M1132 586a28 28 0 1 1 28-28 28.032 28.032 0 0 1-28 28zm0-54a26 26 0 1 0 26 26 26.029 26.029 0 0 0-26-26z" class="cls-2" data-name="Path 4383"/>            </g>        </g>        <g id="Group_4186-2" data-name="Group 4186-2">            <g id="Path_4178-2" data-name="Path 4178-2">                <path id="Path_4384" d="M1132.073 574.829a1.441 1.441 0 0 1-.7-.182L1117 566.729a1.448 1.448 0 0 1-.751-1.271v-14.032a1.451 1.451 0 0 1 .753-1.273l14.37-7.918a1.447 1.447 0 0 1 1.4 0l14.375 7.92a1.453 1.453 0 0 1 .751 1.272v14.033a1.45 1.45 0 0 1-.751 1.271l-14.372 7.919a1.439 1.439 0 0 1-.702.179zm0-31.267l-14.348 7.907.024 13.989 14.348 7.876 14.324-7.919-.025-13.99zm-.024-.013zm-.315-.656z" class="cls-2" data-name="Path 4384"/>            </g>            <g id="Group_4187-2" data-name="Group 4187-2">                <g id="Path_4181-2" data-name="Path 4181-2">                    <path id="Path_4386" d="M1132.025 574.821a.75.75 0 0 1-.75-.75v-14.86a.752.752 0 0 1 .384-.655l14.86-8.3a.749.749 0 0 1 .732 1.308l-14.476 8.086v14.42a.75.75 0 0 1-.75.751z" class="cls-2" data-name="Path 4386"/>                </g>                <g id="Path_4179-2" data-name="Path 4179-2">                    <path id="Path_4387" d="M1132.024 559.961a.739.739 0 0 1-.365-.095l-14.86-8.3a.75.75 0 0 1 .73-1.31l14.495 8.1 14.494-8.1a.75.75 0 0 1 .732 1.309l-14.859 8.3a.753.753 0 0 1-.367.096z" class="cls-2" data-name="Path 4387"/>                </g>            </g>            <g id="Path_4182-2" data-name="Path 4182-2">                <path id="Path_4388" d="M1124.268 561.581a.75.75 0 0 1-.75-.75v-5.68a.749.749 0 0 1 .4-.663l15.34-8.085a.749.749 0 1 1 .7 1.326l-14.939 7.875v5.227a.75.75 0 0 1-.751.75z" class="cls-2" data-name="Path 4388"/>            </g>            <g id="Path_4183-2" data-name="Path 4183-2">                <path id="Path_4389" d="M1134.778 564.024a1.348 1.348 0 0 1-1.2-.728 1.362 1.362 0 0 1-.151-.608v-1.334a1.349 1.349 0 0 1 .717-1.191l3.98-2.1a1.35 1.35 0 0 1 1.977 1.191v1.335a1.358 1.358 0 0 1-.715 1.182l-3.981 2.1a1.347 1.347 0 0 1-.627.153zm.149-2.578v.981l3.674-1.939v-.981zm4.106-.338z" class="cls-2" data-name="Path 4389"/>            </g>        </g>    </g></svg>