<svg id="Layer_1" data-name="Layer 1" xmlns="http://www.w3.org/2000/svg" viewBox="0 0 199.46 199.46"><defs><style>.cls-1{fill:#fff;}.cls-2{fill:#fcb415;}</style></defs><title>uilchilgee</title><path class="cls-1" d="M87.5,121.67a15.58,15.58,0,0,1-4.59,9.26,12.8,12.8,0,0,1-18,0,15.65,15.65,0,0,1-4.52-9.26h-4.1V70a4.61,4.61,0,0,1,1.14-3,3.79,3.79,0,0,1,2.78-1.26h54.85A3.74,3.74,0,0,1,117.83,67,4.5,4.5,0,0,1,119,70v8.61h11.76l11.75,17.48v25.61h-8a15.58,15.58,0,0,1-4.59,9.26,12.8,12.8,0,0,1-18,0,15.69,15.69,0,0,1-4.59-9.26Zm23.65-47.4h-47V109a13.62,13.62,0,0,1,5.53-3.82,12.55,12.55,0,0,1,6.51-.53,13.14,13.14,0,0,1,6,2.84A14.8,14.8,0,0,1,86.31,113h22.24a15.77,15.77,0,0,1,2.6-4.09ZM119,100.14h15.68V98.9l-7.87-11.7H119ZM121,126a5.56,5.56,0,0,0,4.16-1.9,6.92,6.92,0,0,0,0-9.14,5.5,5.5,0,0,0-7.78-.53,5.39,5.39,0,0,0-.54.53,6.94,6.94,0,0,0,0,9.14,5.63,5.63,0,0,0,4.12,1.89Zm-41.14-6.46a6.86,6.86,0,0,0-.45-2.49A6.59,6.59,0,0,0,78.12,115a5.93,5.93,0,0,0-1.91-1.41,5.44,5.44,0,0,0-4.5,0A6.16,6.16,0,0,0,69.8,115,6.59,6.59,0,0,0,68.53,117a7.21,7.21,0,0,0-.45,2.48,6.86,6.86,0,0,0,1.68,4.62,5.51,5.51,0,0,0,7.79.53,4.42,4.42,0,0,0,.53-.53,6.78,6.78,0,0,0,1.72-4.62Z" transform="translate(-0.27 -0.27)"/><path class="cls-2" d="M.27,100A99.73,99.73,0,1,1,100,199.73h0A99.73,99.73,0,0,1,.27,100Z" transform="translate(-0.27 -0.27)"/><path class="cls-1" d="M151.8,100a51.86,51.86,0,1,1-37.56-49.79L124.41,40A63.86,63.86,0,0,0,100,35.25,64.74,64.74,0,1,0,164.75,100ZM73.52,87.57l-9.13,9.19L93.52,125.9l64.75-64.75L149.14,52,93.52,107.58Z" transform="translate(-0.27 -0.27)"/></svg>